<?xml version="1.0" standalone="no"?>
<!DOCTYPE svg PUBLIC "-//W3C//DTD SVG 20010904//EN"
 "http://www.w3.org/TR/2001/REC-SVG-20010904/DTD/svg10.dtd">
<svg version="1.0" xmlns="http://www.w3.org/2000/svg"
 width="400.000000pt" height="240.000000pt" viewBox="0 0 400.000000 240.000000"
 preserveAspectRatio="xMidYMid meet">

<g transform="translate(0.000000,240.000000) scale(0.100000,-0.100000)"
fill="#000000" stroke="none">
<path d="M2284 1770 c-36 -14 -64 -59 -64 -102 0 -82 98 -136 166 -92 29 19
54 63 54 94 0 74 -85 129 -156 100z"/>
<path d="M1850 1514 c-89 -22 -174 -36 -219 -37 -45 -1 -65 -4 -50 -8 49 -14
156 -8 313 17 176 28 240 26 295 -7 65 -39 90 -161 55 -266 -45 -133 -193
-287 -389 -405 -81 -49 -219 -117 -280 -139 -27 -10 -45 -18 -38 -18 22 -2
209 66 294 107 47 23 130 71 185 107 73 48 124 74 194 96 173 56 285 48 345
-22 l25 -30 -7 33 c-20 108 -94 158 -235 158 -38 0 -68 2 -68 5 0 2 9 19 20
37 29 47 60 153 60 204 0 55 -33 128 -71 154 -86 62 -213 66 -429 14z"/>
</g>
</svg>
